<svg width="21" height="28" viewBox="0 0 21 28" fill="none" xmlns="http://www.w3.org/2000/svg">
<path d="M17.5 21.8749C17.3852 21.8763 17.2715 21.8537 17.166 21.8085C17.0605 21.7633 16.9656 21.6965 16.8875 21.6124L2.8875 7.61242C2.5375 7.26242 2.5375 6.71992 2.8875 6.36992C3.2375 6.01992 3.78 6.01992 4.13 6.36992L18.1125 20.3874C18.4625 20.7374 18.4625 21.2799 18.1125 21.6299C17.9375 21.8049 17.71 21.8924 17.5 21.8924V21.8749Z" fill="#426287"/>
<path d="M3.5 21.875C3.38524 21.8764 3.27146 21.8538 3.16598 21.8086C3.06049 21.7634 2.96563 21.6966 2.8875 21.6125C2.5375 21.2625 2.5375 20.72 2.8875 20.37L16.8875 6.3875C17.2375 6.0375 17.78 6.0375 18.13 6.3875C18.48 6.7375 18.48 7.28 18.13 7.63L4.1125 21.6125C3.9375 21.7875 3.71 21.875 3.5 21.875Z" fill="#426287"/>
</svg>
